<?xml version="1.0" encoding="UTF-8" standalone="no" ?><!DOCTYPE svg PUBLIC "-//W3C//DTD SVG 1.1//EN" "http://www.w3.org/Graphics/SVG/1.1/DTD/svg11.dtd">
<svg xmlns="http://www.w3.org/2000/svg" xmlns:xlink="http://www.w3.org/1999/xlink" version="1.1" width="700" height="600" xml:space="preserve"><desc>Created with Fabric.js 1.4.13</desc><defs></defs>	<g transform="translate(215.02 267.97)">
<rect fill="yellow" x="8.3251953125" y="-117.97199999999998" width="8.88671875" height="67.79999999999998"></rect><rect fill="yellow" x="17.2119140625" y="-117.97199999999998" width="22.24609375" height="67.79999999999998"></rect><rect fill="yellow" x="39.4580078125" y="-117.97199999999998" width="20" height="67.79999999999998"></rect><rect fill="yellow" x="59.4580078125" y="-117.97199999999998" width="22.24609375" height="67.79999999999998"></rect>		<text font-family="Helvetica" font-size="40" font-weight="normal" style="stroke: none; stroke-width: 1; stroke-dasharray: ; stroke-linecap: butt; stroke-linejoin: miter; stroke-miterlimit: 10; fill: #333; fill-rule: nonzero; opacity: 1;" ><tspan x="-115.0244140625" y="-65.172" font-size="20" style="stroke: none; stroke-width: 0; stroke-dasharray: ; stroke-linecap: butt; stroke-linejoin: miter; stroke-miterlimit: 4; fill: red; fill-rule: ; opacity: 1;">l</tspan><tspan x="-110.5810546875" y="-65.172" font-size="30" style="stroke: none; stroke-width: 0; stroke-dasharray: ; stroke-linecap: butt; stroke-linejoin: miter; stroke-miterlimit: 4; fill: red; fill-rule: ; opacity: 1;">o</tspan><tspan x="-93.896484375" y="-65.172" font-size="40" style="stroke: none; stroke-width: 0; stroke-dasharray: ; stroke-linecap: butt; stroke-linejoin: miter; stroke-miterlimit: 4; fill: red; fill-rule: ; opacity: 1;">r</tspan><tspan x="-80.576171875" y="-65.172" font-size="50" style="stroke: none; stroke-width: 0; stroke-dasharray: ; stroke-linecap: butt; stroke-linejoin: miter; stroke-miterlimit: 4; fill: red; fill-rule: ; opacity: 1;">e</tspan><tspan x="-52.7685546875" y="-65.172" font-size="60" style="stroke: none; stroke-width: 0; stroke-dasharray: ; stroke-linecap: butt; stroke-linejoin: miter; stroke-miterlimit: 4; fill: red; fill-rule: ; opacity: 1;">m</tspan><tspan x="-2.7880859375" y="-65.172" style="stroke: none; stroke-width: 0; stroke-dasharray: ; stroke-linecap: butt; stroke-linejoin: miter; stroke-miterlimit: 4; fill: #333; fill-rule: ; opacity: 1;"> </tspan><tspan x="8.3251953125" y="-65.172" style="stroke: none; stroke-width: 0; stroke-dasharray: ; stroke-linecap: butt; stroke-linejoin: miter; stroke-miterlimit: 4; fill: #333; fill-rule: ; opacity: 1;">i</tspan><tspan x="17.2119140625" y="-65.172" style="stroke: none; stroke-width: 0; stroke-dasharray: ; stroke-linecap: butt; stroke-linejoin: miter; stroke-miterlimit: 4; fill: #333; fill-rule: ; opacity: 1;">p</tspan><tspan x="39.4580078125" y="-65.172" style="stroke: none; stroke-width: 0; stroke-dasharray: ; stroke-linecap: butt; stroke-linejoin: miter; stroke-miterlimit: 4; fill: #333; fill-rule: ; opacity: 1;">s</tspan><tspan x="59.4580078125" y="-65.172" style="stroke: none; stroke-width: 0; stroke-dasharray: ; stroke-linecap: butt; stroke-linejoin: miter; stroke-miterlimit: 4; fill: #333; fill-rule: ; opacity: 1;">u</tspan><tspan x="81.7041015625" y="-65.172" style="stroke: none; stroke-width: 0; stroke-dasharray: ; stroke-linecap: butt; stroke-linejoin: miter; stroke-miterlimit: 4; fill: #333; fill-rule: ; opacity: 1;">m</tspan><tspan x="-115.0244140625" y="-4.123999999999995" text-decoration="underline" style="stroke: none; stroke-width: 0; stroke-dasharray: ; stroke-linecap: butt; stroke-linejoin: miter; stroke-miterlimit: 4; fill: #333; fill-rule: ; opacity: 1;">d</tspan><tspan x="-92.7783203125" y="-4.123999999999995" text-decoration="underline" style="stroke: none; stroke-width: 0; stroke-dasharray: ; stroke-linecap: butt; stroke-linejoin: miter; stroke-miterlimit: 4; fill: #333; fill-rule: ; opacity: 1;">o</tspan><tspan x="-70.5322265625" y="-4.123999999999995" font-style="italic" text-decoration="underline" style="stroke: none; stroke-width: 0; stroke-dasharray: ; stroke-linecap: butt; stroke-linejoin: miter; stroke-miterlimit: 4; fill: green; fill-rule: ; opacity: 1;">l</tspan><tspan x="-61.6455078125" y="-4.123999999999995" font-style="italic" text-decoration="underline" style="stroke: none; stroke-width: 0; stroke-dasharray: ; stroke-linecap: butt; stroke-linejoin: miter; stroke-miterlimit: 4; fill: green; fill-rule: ; opacity: 1;">o</tspan><tspan x="-39.3994140625" y="-4.123999999999995" font-style="italic" text-decoration="underline" style="stroke: none; stroke-width: 0; stroke-dasharray: ; stroke-linecap: butt; stroke-linejoin: miter; stroke-miterlimit: 4; fill: green; fill-rule: ; opacity: 1;">r</tspan><tspan x="-115.0244140625" y="48.30799999999999" font-weight="bold" style="stroke: none; stroke-width: 0; stroke-dasharray: ; stroke-linecap: butt; stroke-linejoin: miter; stroke-miterlimit: 4; fill: blue; fill-rule: ; opacity: 1;">s</tspan><tspan x="-92.7783203125" y="48.30799999999999" font-weight="bold" style="stroke: none; stroke-width: 0; stroke-dasharray: ; stroke-linecap: butt; stroke-linejoin: miter; stroke-miterlimit: 4; fill: blue; fill-rule: ; opacity: 1;">i</tspan><tspan x="-81.6650390625" y="48.30799999999999" font-weight="bold" style="stroke: none; stroke-width: 0; stroke-dasharray: ; stroke-linecap: butt; stroke-linejoin: miter; stroke-miterlimit: 4; fill: blue; fill-rule: ; opacity: 1;">t</tspan><tspan x="-68.3447265625" y="48.30799999999999" style="stroke: none; stroke-width: 0; stroke-dasharray: ; stroke-linecap: butt; stroke-linejoin: miter; stroke-miterlimit: 4; fill: #333; fill-rule: ; opacity: 1;"> </tspan><tspan x="-57.2314453125" y="48.30799999999999" font-family="Courier" text-decoration="line-through" style="stroke: none; stroke-width: 0; stroke-dasharray: ; stroke-linecap: butt; stroke-linejoin: miter; stroke-miterlimit: 4; fill: #333; fill-rule: ; opacity: 1;">A</tspan><tspan x="-33.2275390625" y="48.30799999999999" font-family="Courier" text-decoration="line-through" style="stroke: none; stroke-width: 0; stroke-dasharray: ; stroke-linecap: butt; stroke-linejoin: miter; stroke-miterlimit: 4; fill: #333; fill-rule: ; opacity: 1;">m</tspan><tspan x="-9.2236328125" y="48.30799999999999" font-family="Courier" text-decoration="line-through" style="stroke: none; stroke-width: 0; stroke-dasharray: ; stroke-linecap: butt; stroke-linejoin: miter; stroke-miterlimit: 4; fill: #333; fill-rule: ; opacity: 1;">e</tspan><tspan x="14.7802734375" y="48.30799999999999" font-family="Courier" text-decoration="line-through" style="stroke: none; stroke-width: 0; stroke-dasharray: ; stroke-linecap: butt; stroke-linejoin: miter; stroke-miterlimit: 4; fill: #333; fill-rule: ; opacity: 1;">t</tspan><tspan x="-115.0244140625" y="100.73999999999998" font-family="Impact" text-decoration="line-through" style="stroke: none; stroke-width: 0; stroke-dasharray: ; stroke-linecap: butt; stroke-linejoin: miter; stroke-miterlimit: 4; fill: #666; fill-rule: ; opacity: 1;">c</tspan><tspan x="-95.2392578125" y="100.73999999999998" font-family="Impact" text-decoration="line-through" style="stroke: none; stroke-width: 0; stroke-dasharray: ; stroke-linecap: butt; stroke-linejoin: miter; stroke-miterlimit: 4; fill: #666; fill-rule: ; opacity: 1;">o</tspan><tspan x="-74.7900390625" y="100.73999999999998" font-family="Impact" text-decoration="line-through" style="stroke: none; stroke-width: 0; stroke-dasharray: ; stroke-linecap: butt; stroke-linejoin: miter; stroke-miterlimit: 4; fill: #666; fill-rule: ; opacity: 1;">n</tspan><tspan x="-53.8720703125" y="100.73999999999998" font-family="Impact" text-decoration="line-through" style="stroke: none; stroke-width: 0; stroke-dasharray: ; stroke-linecap: butt; stroke-linejoin: miter; stroke-miterlimit: 4; fill: #666; fill-rule: ; opacity: 1;">s</tspan><tspan x="-35.0439453125" y="100.73999999999998" font-family="Impact" text-decoration="line-through" style="stroke: none; stroke-width: 0; stroke-dasharray: ; stroke-linecap: butt; stroke-linejoin: miter; stroke-miterlimit: 4; fill: #666; fill-rule: ; opacity: 1;">e</tspan><tspan x="-14.5947265625" y="100.73999999999998" style="stroke: none; stroke-width: 0; stroke-dasharray: ; stroke-linecap: butt; stroke-linejoin: miter; stroke-miterlimit: 4; fill: #333; fill-rule: ; opacity: 1;">c</tspan><tspan x="5.4052734375" y="100.73999999999998" style="stroke: none; stroke-width: 0; stroke-dasharray: ; stroke-linecap: butt; stroke-linejoin: miter; stroke-miterlimit: 4; fill: #333; fill-rule: ; opacity: 1;">t</tspan><tspan x="16.5185546875" y="100.73999999999998" style="stroke: none; stroke-width: 0; stroke-dasharray: ; stroke-linecap: butt; stroke-linejoin: miter; stroke-miterlimit: 4; fill: #333; fill-rule: ; opacity: 1;">e</tspan><tspan x="38.7646484375" y="100.73999999999998" style="stroke: none; stroke-width: 0; stroke-dasharray: ; stroke-linecap: butt; stroke-linejoin: miter; stroke-miterlimit: 4; fill: #333; fill-rule: ; opacity: 1;">t</tspan><tspan x="49.8779296875" y="100.73999999999998" style="stroke: none; stroke-width: 0; stroke-dasharray: ; stroke-linecap: butt; stroke-linejoin: miter; stroke-miterlimit: 4; fill: #333; fill-rule: ; opacity: 1;">u</tspan><tspan x="72.1240234375" y="100.73999999999998" style="stroke: none; stroke-width: 0; stroke-dasharray: ; stroke-linecap: butt; stroke-linejoin: miter; stroke-miterlimit: 4; fill: #333; fill-rule: ; opacity: 1;">r</tspan></text>
	</g>
	<g transform="translate(477.27 294.65)">
		<text font-family="Helvetica" font-size="40" font-weight="normal" style="stroke: none; stroke-width: 1; stroke-dasharray: ; stroke-linecap: butt; stroke-linejoin: miter; stroke-miterlimit: 10; fill: #333; fill-rule: nonzero; opacity: 1;" ><tspan x="-62.265625" y="-43.448" style="stroke: none; stroke-width: 0; stroke-dasharray: ; stroke-linecap: butt; stroke-linejoin: miter; stroke-miterlimit: 4; fill: red; fill-rule: ; opacity: 1;">f</tspan><tspan x="-51.15234375" y="-43.448" style="stroke: none; stroke-width: 0; stroke-dasharray: ; stroke-linecap: butt; stroke-linejoin: miter; stroke-miterlimit: 4; fill: red; fill-rule: ; opacity: 1;">o</tspan><tspan x="-28.90625" y="-43.448" style="stroke: none; stroke-width: 0; stroke-dasharray: ; stroke-linecap: butt; stroke-linejoin: miter; stroke-miterlimit: 4; fill: red; fill-rule: ; opacity: 1;">o</tspan><tspan x="-6.66015625" y="-43.448" style="stroke: none; stroke-width: 0; stroke-dasharray: ; stroke-linecap: butt; stroke-linejoin: miter; stroke-miterlimit: 4; fill: #333; fill-rule: ; opacity: 1;"> </tspan><tspan x="4.453125" y="-43.448" style="stroke: none; stroke-width: 0; stroke-dasharray: ; stroke-linecap: butt; stroke-linejoin: miter; stroke-miterlimit: 4; fill: #333; fill-rule: ; opacity: 1;">b</tspan><tspan x="26.69921875" y="-43.448" style="stroke: none; stroke-width: 0; stroke-dasharray: ; stroke-linecap: butt; stroke-linejoin: miter; stroke-miterlimit: 4; fill: #333; fill-rule: ; opacity: 1;">a</tspan><tspan x="48.9453125" y="-43.448" style="stroke: none; stroke-width: 0; stroke-dasharray: ; stroke-linecap: butt; stroke-linejoin: miter; stroke-miterlimit: 4; fill: #333; fill-rule: ; opacity: 1;">r</tspan><tspan x="-62.2656" y="8.984" fill="#333">baz</tspan><tspan x="-62.265625" y="61.416" style="stroke: none; stroke-width: 0; stroke-dasharray: ; stroke-linecap: butt; stroke-linejoin: miter; stroke-miterlimit: 4; fill: blue; fill-rule: ; opacity: 1;">q</tspan><tspan x="-40.01953125" y="61.416" style="stroke: none; stroke-width: 0; stroke-dasharray: ; stroke-linecap: butt; stroke-linejoin: miter; stroke-miterlimit: 4; fill: blue; fill-rule: ; opacity: 1;">u</tspan><tspan x="-17.7734375" y="61.416" style="stroke: none; stroke-width: 0; stroke-dasharray: ; stroke-linecap: butt; stroke-linejoin: miter; stroke-miterlimit: 4; fill: blue; fill-rule: ; opacity: 1;">u</tspan><tspan x="4.47265625" y="61.416" style="stroke: none; stroke-width: 0; stroke-dasharray: ; stroke-linecap: butt; stroke-linejoin: miter; stroke-miterlimit: 4; fill: blue; fill-rule: ; opacity: 1;">x</tspan></text>
	</g>
<g style="stroke: none; stroke-width: 1; stroke-dasharray: ; stroke-linecap: butt; stroke-linejoin: miter; stroke-miterlimit: 10; fill: none; fill-rule: nonzero; opacity: 1;" transform="translate(498 100) rotate(6)" >
<path d="M 1.9 26.12 V 0 M 11.51 26.12 V 0 M 21.12 26.12 V 0 M 30.74 26.12 V 15.67 M 40.35 26.12 V 15.67 M 49.96 26.12 V 15.67 M 59.57 26.12 V 15.67 M 69.18 26.12 V 15.67 M 78.79 26.12 V 15.67 M 88.4 26.12 V 0 M 98.01 26.12 V 0 M 107.62 26.12 V 15.67 M 117.24 26.12 V 15.67 M 126.85 26.12 V 0 M 136.46 26.12 V 15.67 M 146.07 26.12 V 0 M 155.68 26.12 V 15.67 M 165.29 26.12 V 15.67 M 174.9 26.12 V 0 M 184.51 26.12 V 0 M 194.12 26.12 V 15.67 M 203.74 26.12 V 15.67 M 213.35 26.12 V 0 M 222.96 26.12 V 15.67 M 232.57 26.12 V 15.67 M 242.18 26.12 V 0 M 251.79 26.12 V 0 M 261.4 26.12 V 0 M 271.01 26.12 V 15.67 M 280.62 26.12 V 15.67 M 290.23 26.12 V 15.67 M 299.85 26.12 V 0" style="stroke: #000000; stroke-width: 3.8046; stroke-dasharray: ; stroke-linecap: butt; stroke-linejoin: miter; stroke-miterlimit: 10; fill: none; fill-rule: nonzero; opacity: 1;" transform=" matrix(1 0 0 1 1.91 2.51) " stroke-linecap="round" />
<path d="M 18.63 45.35 c -3.09 0 -5.2 -2.89 -5.25 -8.12 c 0 -5.33 2.31 -8.22 5.52 -8.22 c 3.31 0 5.23 2.97 5.23 8 c 0 5.38 -2.02 8.34 -5.47 8.34 H 18.63 z M 18.73 43.7 c 2.16 0 3.21 -2.55 3.21 -6.59 c 0 -3.89 -0.97 -6.44 -3.21 -6.44 c -1.95 0 -3.21 2.48 -3.21 6.44 c -0.05 4.11 1.22 6.59 3.19 6.59 H 18.73 z" style="stroke: none; stroke-width: 1; stroke-dasharray: ; stroke-linecap: butt; stroke-linejoin: miter; stroke-miterlimit: 10; fill: #231F20; fill-rule: nonzero; opacity: 1;" transform=" matrix(1 0 0 1 1.91 2.51) " stroke-linecap="round" />
<path d="M 67.87 31.27 h -0.05 l -2.75 1.48 l -0.41 -1.63 l 3.45 -1.85 h 1.82 v 15.81 h -2.07 V 31.27 z" style="stroke: none; stroke-width: 1; stroke-dasharray: ; stroke-linecap: butt; stroke-linejoin: miter; stroke-miterlimit: 10; fill: #231F20; fill-rule: nonzero; opacity: 1;" transform=" matrix(1 0 0 1 1.91 2.51) " stroke-linecap="round" />
<path d="M 113.23 45.09 v -1.31 l 1.68 -1.63 c 4.04 -3.84 5.89 -5.88 5.89 -8.27 c 0 -1.61 -0.75 -3.09 -3.11 -3.09 c -1.44 0 -2.63 0.73 -3.36 1.34 l -0.68 -1.51 c 1.07 -0.9 2.65 -1.61 4.48 -1.61 c 3.38 0 4.82 2.33 4.82 4.6 c 0 2.92 -2.12 5.28 -5.45 8.49 l -1.24 1.17 v 0.05 h 7.08 v 1.78 H 113.23 z" style="stroke: none; stroke-width: 1; stroke-dasharray: ; stroke-linecap: butt; stroke-linejoin: miter; stroke-miterlimit: 10; fill: #231F20; fill-rule: nonzero; opacity: 1;" transform=" matrix(1 0 0 1 1.91 2.51) " stroke-linecap="round" />
<path d="M 162.63 42.65 c 0.61 0.37 2 0.97 3.5 0.97 c 2.72 0 3.6 -1.73 3.58 -3.06 c -0.02 -2.21 -2.02 -3.16 -4.09 -3.16 h -1.19 v -1.6 h 1.19 c 1.56 0 3.53 -0.8 3.53 -2.68 c 0 -1.27 -0.8 -2.38 -2.77 -2.38 c -1.26 0 -2.48 0.56 -3.16 1.04 l -0.58 -1.56 c 0.85 -0.61 2.46 -1.22 4.16 -1.22 c 3.11 0 4.52 1.85 4.52 3.77 c 0 1.65 -1 3.04 -2.92 3.75 v 0.05 c 1.95 0.36 3.53 1.82 3.53 4.04 c 0 2.53 -1.99 4.74 -5.76 4.74 c -1.78 0 -3.33 -0.56 -4.11 -1.07 L 162.63 42.65 z" style="stroke: none; stroke-width: 1; stroke-dasharray: ; stroke-linecap: butt; stroke-linejoin: miter; stroke-miterlimit: 10; fill: #231F20; fill-rule: nonzero; opacity: 1;" transform=" matrix(1 0 0 1 1.91 2.51) " stroke-linecap="round" />
<path d="M 219.11 45.09 v -4.3 h -7.35 V 39.4 l 7.05 -10.12 h 2.31 v 9.85 h 2.21 v 1.65 h -2.21 v 4.3 H 219.11 z M 219.11 39.13 v -5.3 c 0 -0.83 0.02 -1.65 0.07 -2.48 h -0.07 c -0.49 0.92 -0.88 1.61 -1.31 2.36 l -3.87 5.37 v 0.05 H 219.11 z" style="stroke: none; stroke-width: 1; stroke-dasharray: ; stroke-linecap: butt; stroke-linejoin: miter; stroke-miterlimit: 10; fill: #231F20; fill-rule: nonzero; opacity: 1;" transform=" matrix(1 0 0 1 1.91 2.51) " stroke-linecap="round" />
<path d="M 266.05 45.35 c -3.09 0 -5.21 -2.89 -5.25 -8.12 c 0 -5.33 2.31 -8.22 5.52 -8.22 c 3.31 0 5.23 2.97 5.23 8 c 0 5.38 -2.02 8.34 -5.47 8.34 H 266.05 z M 266.15 43.7 c 2.17 0 3.21 -2.55 3.21 -6.59 c 0 -3.89 -0.97 -6.44 -3.21 -6.44 c -1.95 0 -3.21 2.48 -3.21 6.44 c -0.05 4.11 1.22 6.59 3.19 6.59 H 266.15 z" style="stroke: none; stroke-width: 1; stroke-dasharray: ; stroke-linecap: butt; stroke-linejoin: miter; stroke-miterlimit: 10; fill: #231F20; fill-rule: nonzero; opacity: 1;" transform=" matrix(1 0 0 1 1.91 2.51) " stroke-linecap="round" />
</g>
<g style="stroke: none; stroke-width: 1; stroke-dasharray: ; stroke-linecap: butt; stroke-linejoin: miter; stroke-miterlimit: 10; fill: none; fill-rule: nonzero; opacity: 1;" transform="translate(199 245) rotate(1)" >
<path d="M 73.21 10.51 c 0 0 -0.85 6.82 -4.5 3.78 c -4.32 -3.6 -0.72 -8.1 4.14 -6.84 c 4.86 1.26 9.36 11.51 -0.72 20.33 c -10.07 8.81 -19.25 -3.42 -18.89 -9.17 s 4.68 -3.78 4.68 -3.78 s -2.52 -5.75 -6.84 -4.86 c -4.31 0.9 -3.06 4.32 -3.06 4.32 S 41.55 3.31 34 0.97 c -7.56 -2.34 -11.33 0 -14.93 2.16 c -3.6 2.16 -5.58 -0.72 -4.68 -2.7 c 0 0 -3.6 0.36 -1.8 3.24 c 0 0 -8.82 -3.78 -12.59 2.88 c 0 0 6.83 -0.72 6.12 3.6 c -0.72 4.32 6.11 6.86 10.61 1.98 c 2.16 -2.34 0.36 -2.88 0.36 -2.88 s 1.8 -0.36 1.08 5.22 c -0.72 5.58 5.76 7.73 8.27 6.48 c 2.52 -1.26 7.56 -5.4 0 -10.79 c 0 0 -0.54 -3.78 8.46 -0.54 c 8.99 3.24 10.07 15.65 10.07 15.65 s -3.42 1.08 -3.24 4.68 c 0.18 3.6 3.78 5.76 7.01 3.96 c 0 0 -1.8 0.36 -1.26 -3.96 c 0.54 -4.32 3.42 -0.36 5.58 1.62 c 2.16 1.98 4.14 3.24 4.14 3.24 s -14.57 -0.36 -13.31 16.73 c 0 0 2.34 -4.68 5.4 -4.86 c 3.06 -0.18 5.04 0.36 6.12 -2.52 c 0 0 -2.7 10.43 2.16 14.93 c 4.86 4.5 7.91 8.09 8.46 9.53 c 0.54 1.44 -0.36 6.12 -3.24 4.14 c 0 0 3.78 5.22 7.73 3.06 c 3.96 -2.16 1.98 -4.14 1.98 -4.14 s 7.19 4.32 4.68 14.21 c 0 0 -4.86 -5.94 -8.81 -1.62 c -3.96 4.32 -1.38 11.51 3.06 9.89 c 1.98 -0.72 2.7 -1.44 2.7 -1.44 s -3.6 13.13 6.3 15.47 c 9.89 2.34 11.69 -7.2 11.69 -7.2 s -6.48 4.68 -10.26 1.26 c -3.78 -3.42 -1.44 -11.33 1.62 -15.29 c 3.05 -3.96 3.23 -14.21 -3.96 -19.07 c 0 0 6.12 -1.8 6.12 -11.15 c 0 -9.35 -9.17 -11.69 -14.39 -8.09 c -5.21 3.6 -2.88 12.77 2.7 12.23 c 5.58 -0.54 5.4 -5.22 5.4 -5.22 s 0.9 6.83 -7.56 6.83 c -8.45 0 -9.35 -9.17 -9.17 -13.85 c 0 0 0.9 2.88 3.6 2.88 c 0 0 -3.96 -3.6 3.06 -9.53 S 85.08 29.75 85.08 17.7 c 0 -12.05 -8.27 -18.53 -16.01 -16.91 c -6.16 1.29 -11.75 7.54 -5.93 15.47 c 1.98 2.7 -0.72 3.96 -2.7 3.06 c 0 0 1.44 4.68 6.84 3.06 c 0 0 1.44 2.52 2.88 1.8 c 1.44 -0.72 3.6 0.36 3.6 0.36 s -0.9 -3.6 0.18 -4.86 c 1.08 -1.26 -2.16 -1.8 -2.16 -1.8 S 76.08 18.06 73.21 10.51 z" style="stroke: none; stroke-width: 1; stroke-dasharray: ; stroke-linecap: butt; stroke-linejoin: miter; stroke-miterlimit: 10; fill: #231F20; fill-rule: nonzero; opacity: 1;" transform="" stroke-linecap="round" />
<path d="M 115.71 10.51 c 0 0 0.85 6.82 4.5 3.78 c 4.32 -3.6 0.72 -8.1 -4.14 -6.84 c -4.86 1.26 -9.35 11.51 0.72 20.33 c 10.07 8.81 19.24 -3.42 18.89 -9.17 c -0.36 -5.76 -4.68 -3.78 -4.68 -3.78 s 2.52 -5.75 6.83 -4.86 c 4.32 0.9 3.06 4.32 3.06 4.32 s 6.47 -10.97 14.03 -13.31 c 7.55 -2.34 11.33 0 14.93 2.16 c 3.6 2.16 5.57 -0.72 4.68 -2.7 c 0 0 3.6 0.36 1.8 3.24 c 0 0 8.81 -3.78 12.59 2.88 c 0 0 -6.84 -0.72 -6.12 3.6 c 0.72 4.32 -6.11 6.86 -10.61 1.98 c -2.15 -2.34 -0.36 -2.88 -0.36 -2.88 s -1.8 -0.36 -1.08 5.22 c 0.72 5.58 -5.75 7.73 -8.27 6.48 c -2.52 -1.26 -7.55 -5.4 0 -10.79 c 0 0 0.54 -3.78 -8.46 -0.54 c -8.99 3.24 -10.07 15.65 -10.07 15.65 s 3.42 1.08 3.24 4.68 c -0.18 3.6 -3.78 5.76 -7.02 3.96 c 0 0 1.8 0.36 1.26 -3.96 c -0.54 -4.32 -3.42 -0.36 -5.58 1.62 c -2.16 1.98 -4.14 3.24 -4.14 3.24 s 14.57 -0.36 13.31 16.73 c 0 0 -2.34 -4.68 -5.4 -4.86 c -3.05 -0.18 -5.03 0.36 -6.11 -2.52 c 0 0 2.7 10.43 -2.16 14.93 c -4.86 4.5 -7.91 8.09 -8.45 9.53 c -0.54 1.44 0.36 6.12 3.23 4.14 c 0 0 -3.78 5.22 -7.73 3.06 c -3.96 -2.16 -1.98 -4.14 -1.98 -4.14 s -7.19 4.32 -4.67 14.21 c 0 0 4.85 -5.94 8.81 -1.62 c 3.96 4.32 1.38 11.51 -3.06 9.89 c -1.98 -0.72 -2.7 -1.44 -2.7 -1.44 s 3.6 13.13 -6.3 15.47 c -9.89 2.34 -11.69 -7.2 -11.69 -7.2 s 6.47 4.68 10.25 1.26 c 3.78 -3.42 1.44 -11.33 -1.62 -15.29 c -3.05 -3.96 -3.24 -14.21 3.96 -19.07 c 0 0 -6.12 -1.8 -6.12 -11.15 c 0 -9.35 9.18 -11.69 14.39 -8.09 c 5.22 3.6 2.88 12.77 -2.7 12.23 c -5.58 -0.54 -5.4 -5.22 -5.4 -5.22 s -0.9 6.83 7.55 6.83 s 9.35 -9.17 9.17 -13.85 c 0 0 -0.9 2.88 -3.6 2.88 c 0 0 3.96 -3.6 -3.06 -9.53 s -15.83 -12.23 -15.83 -24.28 c 0 -12.05 8.27 -18.53 16.01 -16.91 c 6.16 1.29 11.75 7.54 5.94 15.47 c -1.98 2.7 0.72 3.96 2.7 3.06 c 0 0 -1.44 4.68 -6.84 3.06 c 0 0 -1.44 2.52 -2.88 1.8 c -1.44 -0.72 -3.6 0.36 -3.6 0.36 s 0.9 -3.6 -0.18 -4.86 c -1.08 -1.26 2.16 -1.8 2.16 -1.8 S 112.84 18.06 115.71 10.51 z" style="stroke: none; stroke-width: 1; stroke-dasharray: ; stroke-linecap: butt; stroke-linejoin: miter; stroke-miterlimit: 10; fill: #231F20; fill-rule: nonzero; opacity: 1;" transform="" stroke-linecap="round" />
</g>
<g style="stroke: none; stroke-width: 1; stroke-dasharray: ; stroke-linecap: butt; stroke-linejoin: miter; stroke-miterlimit: 10; fill: none; fill-rule: nonzero; opacity: 1;" transform="translate(131 382)" >
<path d="M 99.43 14.1 c -11.83 -8 -44.24 -2.67 -43.83 11.33 c 0.16 5.5 0.77 8.11 0 8.67 c -4 2.92 -10.12 -6.23 -5.88 -0.45 c 2.43 3.3 3.19 2.14 3.5 4.12 c 0.62 2.38 -1.85 3.92 -3.25 4.62 c -4.07 2.05 -9.12 2.62 -12.5 2.62 c 6.26 3.74 9.45 7.12 5.62 7.12 c -2.42 0 -1.14 2.68 0.12 3.38 c 5.04 2.75 -1.92 0 -2.38 3.12 c -0.47 3.23 2.08 1.04 1.75 4.38 c -0.75 5.67 -5.43 12.88 -3.92 13.5 c 8.75 3.58 23.21 -3.6 30.83 0.83 c 5.58 3.25 11.02 31.58 1.75 42.08 c -25.12 28.46 -39.83 23.64 -42.04 28.96 c -7.12 17.12 5.46 22.6 7.38 29.04 c 1.56 5.25 -1.09 8.08 -12.5 29.54 c -12.25 23.04 -9.34 49.81 -7.55 69.51 c 5.76 63.27 7.47 128.87 7.47 160.37 c 15.17 11.92 191.91 136.66 225.08 160.42 c 7.82 5.6 16.44 7.91 14 24 c -1.25 8.25 7.17 0.08 9.63 -20.87 c 0.33 -2.79 -11.73 -7.6 -19.54 -9.91 c -19.59 -5.79 -18.09 -20.22 -20.09 -26.22 c -3.97 -11.9 -12.5 -11.5 -22.5 -9.75 c -11.14 1.95 -41.32 -24.06 -90 -83.08 c -39.23 -47.55 -67.77 -36.15 -71.17 -47.83 c -6.05 -20.83 -0.15 -49.67 10.85 -48.34 c -16.35 19.17 4.87 62.68 13.59 97 c 15.38 60.51 41.3 155.26 35.97 195.26 s -7.92 32.02 -7.92 42.58 c 0 14.5 -3.66 21.83 -12.75 24.58 c -9.93 3.01 4.92 6.08 16.67 6.08 c 15.25 0 -0.9 -14.97 5 -31 c 11.5 -31.25 26.45 -25.67 30.19 -39.06 c 3.47 -12.42 -13.49 -11.61 -18.44 -26.69 c -4.28 -13.05 -13 -76.9 -18 -143.92 c -3.32 -44.49 5.29 -53.95 -10 -101.33 c -5 -15.5 6 -25 8.67 -97.96 c 0.71 -19.53 -15.53 -35.57 -24.67 -44.71 c -15.97 -15.97 -19.07 -22.17 -21.67 -27.67 c -6.58 -13.92 20.79 -32.43 47.67 -49.92 c 30.75 -20 25.52 -47.69 15.88 -53.38 C 83.35 103.27 84.9 75.61 90.35 72.27 C 146.6 37.77 99.43 14.1 99.43 14.1 z" style="stroke: none; stroke-width: 1; stroke-dasharray: ; stroke-linecap: butt; stroke-linejoin: miter; stroke-miterlimit: 10; fill: #1B262B; fill-rule: nonzero; opacity: 1;" transform=" matrix(1 0 0 1 0.4 0.23) " stroke-linecap="round" />
<path d="M 92.43 157.1 c 18 0.83 33.64 10.17 43.5 27.67 c 13.21 23.45 15.84 30.83 24.67 48.67 c -44.16 19.5 -38.83 26.83 -66.99 39.64 c -26.03 11.84 -50.52 27.38 -56.5 33.36 c -6.67 6.67 10.83 4.67 10.83 15.17 c 11.54 0 22 4.5 22 4.5 c -1.41 -8.08 -12.96 -16.55 -17 -17.83 c -9.27 -2.96 28.19 -17.42 39.82 -22.29 c 35.25 -14.75 76.1 -31.71 83.1 -38.71 c 2.96 -2.96 8.58 -10.06 5.08 -16.83 c -25.33 -49 -23.73 -79.27 -50 -109.54 c -16.41 -18.9 -32.33 -10.92 -40.83 -6.88 C 75.62 120.9 76.4 156.36 92.43 157.1 z" style="stroke: none; stroke-width: 1; stroke-dasharray: ; stroke-linecap: butt; stroke-linejoin: miter; stroke-miterlimit: 10; fill: #1B262B; fill-rule: nonzero; opacity: 1;" transform=" matrix(1 0 0 1 0.4 0.23) " stroke-linecap="round" />
<path d="M 14.96 253.9 c -1.78 31.14 66.45 10.03 57.95 -3.64 c 35.83 29.01 34.43 51.32 28.8 92.89 c -6.73 49.67 28.89 99.61 62.89 80.61 c -33.33 28.67 -53.35 -11.13 -77.5 -12 c -69.67 -2.5 -77.02 23.02 -76 14.5 c 4.33 -35.99 11.65 -49.79 8.19 -91.47 C 17.3 310.73 9.33 274.2 14.96 253.9 z" style="stroke: none; stroke-width: 1; stroke-dasharray: ; stroke-linecap: butt; stroke-linejoin: miter; stroke-miterlimit: 10; fill: #97A62A; fill-rule: nonzero; opacity: 1;" transform=" matrix(1 0 0 1 0.4 0.23) " stroke-linecap="round" />
<path d="M 5.1 214.27 c 9.5 -1.5 17.73 -4.77 27.88 5.38 c 10.12 10.12 21.46 13.79 27.71 10.21 c -1.58 -5.83 -10.71 -14.42 32.17 -41.77 c 19.53 -12.46 29.65 -23.82 27 -24.82 c -17 -6.42 -25.84 -15.29 -18.92 -38 c 2.05 -6.73 4.07 -11.4 6.5 -16.27 c 0.86 -1.72 -5.55 -0.26 -5.55 0.65 c 0 9.4 -4.54 16.53 -25.25 32.58 c -9.17 23.33 -46.04 59.57 -43.04 55.53 c 18.33 -24.66 12.52 -37.37 20.5 -50.5 c 16.37 -26.94 23.5 -29.83 21.1 -35.4 c -23.68 31.99 -38.07 29.61 -44.26 33.07 c -2.84 1.59 -11.92 16.08 3.83 31.83 C 22.43 203.93 5.1 214.27 5.1 214.27 z" style="stroke: none; stroke-width: 1; stroke-dasharray: ; stroke-linecap: butt; stroke-linejoin: miter; stroke-miterlimit: 10; fill: #97A62A; fill-rule: nonzero; opacity: 1;" transform=" matrix(1 0 0 1 0.4 0.23) " stroke-linecap="round" />
<path d="M 87.12 735.48 c -15.73 0 -20.6 1.53 -3.94 5.12 c 14.67 3.17 27.64 4.38 32.25 1.83 c 2.69 -1.48 1.43 -13.65 -0.33 -18.08 c -3.75 -9.42 8.81 -30.81 16.25 -38.25 c 6.24 -6.24 8.21 -2.21 11.75 2.96 c 6.36 9.28 13.39 25.75 17.25 32.52 c 0.6 1.05 2.01 0.34 1.25 -1.44 c -20.33 -47.46 -14.81 -50.02 -15.75 -57.29 c -0.62 -4.83 -17.21 -9.36 -14.87 -7.46 c 8.5 6.9 15.75 10.75 5.15 22.8 c -5.93 6.74 -15.66 6.27 -24.76 30.19 c -2.4 4.77 -3.06 11.21 -1.51 15.14 c 8.36 21.12 -4.67 17.84 -12.94 16.73 C 81.18 738.12 87.12 735.48 87.12 735.48 z" style="stroke: none; stroke-width: 1; stroke-dasharray: ; stroke-linecap: butt; stroke-linejoin: miter; stroke-miterlimit: 10; fill: #97A62A; fill-rule: nonzero; opacity: 1;" transform=" matrix(1 0 0 1 0.4 0.23) " stroke-linecap="round" />
<path d="M 92.75 285.98 c 2.58 -1.08 5.2 -2.18 7.83 -3.28 c -1.33 -3.75 -3.13 -7.23 -5.35 -10.38 c -0.53 0.25 -1.07 0.5 -1.63 0.75 c -26.03 11.84 -50.52 27.38 -56.5 33.36 c -6.67 6.67 10.83 4.67 10.83 15.17 c 11.54 0 22 4.5 22 4.5 c -1.41 -8.08 -12.96 -16.55 -17 -17.83 C 43.66 305.3 81.12 290.84 92.75 285.98 z" style="stroke: none; stroke-width: 1; stroke-dasharray: ; stroke-linecap: butt; stroke-linejoin: miter; stroke-miterlimit: 10; fill: #1B262B; fill-rule: nonzero; opacity: 1;" transform=" matrix(1 0 0 1 0.4 0.23) " stroke-linecap="round" />
<path d="M 53.22 316.77 c 10.12 3 4.34 10.86 10.38 18.93 c 7.89 10.55 10.02 30.12 5.31 19 c -6.06 -14.31 -6.23 -13.44 -9.06 -18.31 c -0.5 14.62 11.38 20.21 9.38 29.5 c -1 4.62 -0.85 -2.51 -5.38 -9.25 c -4.62 -6.88 -5.5 -7.5 -9.12 -17.25 C 47.24 319.26 53.22 316.77 53.22 316.77 z" style="stroke: none; stroke-width: 1; stroke-dasharray: ; stroke-linecap: butt; stroke-linejoin: miter; stroke-miterlimit: 10; fill: #1B262B; fill-rule: nonzero; opacity: 1;" transform=" matrix(1 0 0 1 0.4 0.23) " stroke-linecap="round" />
<path d="M 44.29 309.45 c -11.94 0.56 0.71 4.7 5.44 19.44 c 3.25 10.12 -2.04 16.89 2 19.88 c 4.97 3.67 12.36 10.94 11.36 9.17 c -9.09 -15.98 -10.88 -8.95 -7.92 -20.86 c 4.51 -18.13 5.62 -16.76 -0.44 -23.06 C 49.58 308.66 44.29 309.45 44.29 309.45 z" style="stroke: none; stroke-width: 1; stroke-dasharray: ; stroke-linecap: butt; stroke-linejoin: miter; stroke-miterlimit: 10; fill: #1B262B; fill-rule: nonzero; opacity: 1;" transform=" matrix(1 0 0 1 0.4 0.23) " stroke-linecap="round" />
<path d="M 56.8 322.4 c 5.79 2.74 14.41 6.66 17.29 11.87 c 3.38 6.1 16.26 4.25 10.25 2.25 c -14.98 -4.98 -15.5 -16.38 -23.5 -19.25 S 56.8 322.4 56.8 322.4 z" style="stroke: none; stroke-width: 1; stroke-dasharray: ; stroke-linecap: butt; stroke-linejoin: miter; stroke-miterlimit: 10; fill: #1B262B; fill-rule: nonzero; opacity: 1;" transform=" matrix(1 0 0 1 0.4 0.23) " stroke-linecap="round" />
<path d="M 75.6 4.77 c 18.83 -10.67 43.33 -3.04 53.33 19 c 8.79 19.38 11.57 51.2 43.67 55.25 c 23.75 3 22.08 -12.25 43 -8 c 10.47 2.13 28.03 21.78 16.67 35.42 c -9.53 11.44 -20.92 -1.58 -15.17 -7.33 c -0.84 3.74 5.67 13.37 12.08 4.25 c 3.05 -4.34 -7.68 -15.52 -21.92 -8.25 c -11.45 5.85 -29.84 12.11 -37.83 11.67 c -11.94 -0.67 -14.86 -4.81 -16.27 -6.21 c 1.02 8.71 8.93 13.43 27.94 8.27 c 9.44 -2.56 21.49 14.69 6.41 29.78 c -14.07 14.07 7.17 -4.42 -3.08 -14.67 c -11.41 -11.41 -18.83 2.42 -26.67 4.5 c -13.17 3.5 -16.87 -9.1 -15.49 -1.33 c 1.58 8.92 14.49 11.67 7.79 25.04 C 126.1 103.6 113 109.77 98 109.77 c -9.9 0 -20.26 -33.43 -14.74 -43 c 6.83 -11.83 6.49 -3.63 10.17 -11.17 c 5.35 -10.98 -9.62 -12.09 -6.5 -6 c 1.88 3.67 -9.29 -8.19 -14.67 -13.5 c 0 8.67 0.17 12.41 10 16.67 c 2.16 0.94 -10.5 2.08 -17.42 -12.42 c -4.6 -9.65 -2.14 -11.31 -6.92 -16.08 c -4.92 -4.92 -1.67 9.67 1.88 13.22 c -8.33 -3.72 -10.48 -14.99 0.56 -24.23 C 71.09 4.29 75.6 4.77 75.6 4.77 z" style="stroke: none; stroke-width: 1; stroke-dasharray: ; stroke-linecap: butt; stroke-linejoin: miter; stroke-miterlimit: 10; fill: #A1551B; fill-rule: nonzero; opacity: 1;" transform=" matrix(1 0 0 1 0.4 0.23) " stroke-linecap="round" />
<path d="M 65.33 76.02 c 10.35 -2 14.93 28.75 7.94 38.39 c -6.32 8.72 -17.86 19.08 -18.81 19.55 c -6.2 3.11 -23.91 -29.25 -40.2 -27.86 c -11.37 0.97 -11.05 14.09 -5.5 16.67 c 4.67 2.17 -20.5 -8 -1.69 -21.62 c 10.44 -7.56 22.35 4.79 45.85 -3.71 C 64.64 93.2 65.33 76.02 65.33 76.02 z" style="stroke: none; stroke-width: 1; stroke-dasharray: ; stroke-linecap: butt; stroke-linejoin: miter; stroke-miterlimit: 10; fill: #A1551B; fill-rule: nonzero; opacity: 1;" transform=" matrix(1 0 0 1 0.4 0.23) " stroke-linecap="round" />
<path d="M 106.6 289.27 c 45 -3 66.5 -5 106.7 -51.06 c 10.08 43.59 5.8 66.77 -28.2 80.31 C 146.77 333.78 106.6 289.27 106.6 289.27 z" style="stroke: none; stroke-width: 1; stroke-dasharray: ; stroke-linecap: butt; stroke-linejoin: miter; stroke-miterlimit: 10; fill: #71521B; fill-rule: nonzero; opacity: 1;" transform=" matrix(1 0 0 1 0.4 0.23) " stroke-linecap="round" />
<path d="M 106.6 289.27 c 47 7 85.5 -10.5 107.5 -50 c 12.83 40.83 26.46 88.47 -8 108.5 C 147.6 381.77 106.6 289.27 106.6 289.27 z" style="stroke: none; stroke-width: 1; stroke-dasharray: ; stroke-linecap: butt; stroke-linejoin: miter; stroke-miterlimit: 10; fill: #C49F12; fill-rule: nonzero; opacity: 1;" transform=" matrix(1 0 0 1 0.4 0.23) " stroke-linecap="round" />
<path d="M 128.77 250.52 c -0.07 -0.11 -0.14 -0.23 -0.2 -0.34 c -0.17 0.04 -0.34 0.08 -0.49 0.13 L 128.77 250.52 z" style="stroke: none; stroke-width: 1; stroke-dasharray: ; stroke-linecap: butt; stroke-linejoin: miter; stroke-miterlimit: 10; fill: #9F4718; fill-rule: nonzero; opacity: 1;" transform=" matrix(1 0 0 1 0.4 0.23) " stroke-linecap="round" />
<path d="M 141.93 245.93 c -14.91 -4.76 -17.25 -2.39 -13.36 4.25 c 3.86 -0.86 14.62 1.6 27.26 8.48 l 0.02 0.01 l -0.01 0 c 8.58 4.67 18.03 11.38 26.75 20.48 c 6.42 6.7 11 0.88 6.5 -3.62 C 189.1 275.52 173.68 256.06 141.93 245.93 z" style="stroke: none; stroke-width: 1; stroke-dasharray: ; stroke-linecap: butt; stroke-linejoin: miter; stroke-miterlimit: 10; fill: #9F4718; fill-rule: nonzero; opacity: 1;" transform=" matrix(1 0 0 1 0.4 0.23) " stroke-linecap="round" />
<path d="M 147.43 284.35 c 1.36 -0.37 3.56 -0.97 7.12 -1.93 c -4.78 -5.98 -9.68 -11.67 -14 -16.78 l -5.99 2.63 C 138.77 274.38 143.85 280.53 147.43 284.35 z" style="stroke: none; stroke-width: 1; stroke-dasharray: ; stroke-linecap: butt; stroke-linejoin: miter; stroke-miterlimit: 10; fill: #9F4718; fill-rule: nonzero; opacity: 1;" transform=" matrix(1 0 0 1 0.4 0.23) " stroke-linecap="round" />
</g>
<path d="M 503.5 510 Q 503.5 510 504 510 Q 504.5 510 504.25 509.5 Q 504 509 503.5 506.5 Q 503 504 504.5 498 Q 506 492 508 484 Q 510 476 512 470.5 Q 514 465 515.5 461.5 Q 517 458 519 454.5 Q 521 451 522 449.5 Q 523 448 524.5 447 Q 526 446 527 445.5 Q 528 445 530 444 Q 532 443 533.5 443 Q 535 443 537.5 443 Q 540 443 542.5 443 Q 545 443 549 443 Q 553 443 558 445.5 Q 563 448 569.5 451.5 Q 576 455 582 461 Q 588 467 592 473.5 Q 596 480 601 486.5 Q 606 493 608 498 Q 610 503 611.5 507.5 Q 613 512 613 516 Q 613 520 612 523.5 Q 611 527 605.5 530.5 Q 600 534 592 536 Q 584 538 569.5 539 Q 555 540 537.5 540 Q 520 540 504 539 Q 488 538 474 533 Q 460 528 448 522 Q 436 516 426.5 508.5 Q 417 501 409 491.5 Q 401 482 396 470 Q 391 458 388.5 445.5 Q 386 433 385.5 421.5 Q 385 410 385 402.5 Q 385 395 387.5 388.5 Q 390 382 392.5 377.5 Q 395 373 399 371.5 Q 403 370 410 369.5 Q 417 369 430 376 Q 443 383 460 393.5 Q 477 404 489 410.5 Q 501 417 514.5 422.5 Q 528 428 538.5 432 Q 549 436 558.5 439.5 Q 568 443 577 446.5 Q 586 450 594 453.5 Q 602 457 607 459 Q 612 461 616 462 Q 620 463 622.5 463.5 Q 625 464 627 464 Q 629 464 629.5 459.5 Q 630 455 629.5 442.5 Q 629 430 621 410 Q 613 390 602 370 Q 591 350 582.5 336.5 Q 574 323 568 315 Q 562 307 557 299 Q 552 291 548.5 286.5 Q 545 282 542 278 Q 539 274 537 272.5 Q 535 271 533 269.5 Q 531 268 529 266.5 Q 527 265 525 264 Q 523 263 520.5 262 Q 518 261 514 259.5 Q 510 258 507 257.5 Q 504 257 499.5 256 Q 495 255 491.5 255 Q 488 255 485 255 Q 482 255 477.5 255 Q 473 255 469 255 Q 465 255 459.5 256 Q 454 257 449 257.5 Q 444 258 439 258 Q 434 258 430.5 258 Q 427 258 424.5 257 Q 422 256 420 254 Q 418 252 417 250 Q 416 248 416 245.5 Q 416 243 416 241 Q 416 239 417 237.5 Q 418 236 421.5 233.5 Q 425 231 427.5 229.5 Q 430 228 432.5 226 Q 435 224 437 223 Q 439 222 440 221.5 Q 441 221 441.5 220 Q 442 219 443 218 Q 444 217 444 217.5 L 444 218" style="stroke: rgb(0, 0, 0); stroke-width: 1; stroke-dasharray: ; stroke-linecap: round; stroke-linejoin: round; stroke-miterlimit: 10; fill: none; fill-rule: nonzero; opacity: 1;" transform="translate(507.44 378.59) translate(-507.4375, -378.5857864376269) " stroke-linecap="round" />
</svg>